<svg width="20" height="20" viewBox="0 0 20 20" fill="none" xmlns="http://www.w3.org/2000/svg">
<path d="M16.0583 4.44183C14.95 3.92516 13.75 3.55016 12.5 3.3335C12.478 3.33381 12.457 3.3428 12.4417 3.3585C12.2917 3.6335 12.1167 3.99183 12 4.26683C10.6742 4.06695 9.32584 4.06695 8 4.26683C7.88333 3.9835 7.70833 3.6335 7.55 3.3585C7.54166 3.34183 7.51666 3.3335 7.49166 3.3335C6.24166 3.55016 5.05 3.92516 3.93333 4.44183C3.925 4.44183 3.91666 4.45016 3.90833 4.4585C1.64166 7.85016 1.01666 11.1502 1.325 14.4168C1.325 14.4335 1.33333 14.4502 1.35 14.4585C2.85 15.5585 4.29166 16.2252 5.71666 16.6668C5.74166 16.6752 5.76666 16.6668 5.775 16.6502C6.10833 16.1918 6.40833 15.7085 6.66666 15.2002C6.68333 15.1668 6.66666 15.1335 6.63333 15.1252C6.15833 14.9418 5.70833 14.7252 5.26666 14.4752C5.23333 14.4585 5.23333 14.4085 5.25833 14.3835C5.35 14.3168 5.44166 14.2418 5.53333 14.1752C5.55 14.1585 5.575 14.1585 5.59166 14.1668C8.45833 15.4752 11.55 15.4752 14.3833 14.1668C14.4 14.1585 14.425 14.1585 14.4417 14.1752C14.5333 14.2502 14.625 14.3168 14.7167 14.3918C14.75 14.4168 14.75 14.4668 14.7083 14.4835C14.275 14.7418 13.8167 14.9502 13.3417 15.1335C13.3083 15.1418 13.3 15.1835 13.3083 15.2085C13.575 15.7168 13.875 16.2002 14.2 16.6585C14.225 16.6668 14.25 16.6752 14.275 16.6668C15.7083 16.2252 17.15 15.5585 18.65 14.4585C18.6667 14.4502 18.675 14.4335 18.675 14.4168C19.0417 10.6418 18.0667 7.36683 16.0917 4.4585C16.0833 4.45016 16.075 4.44183 16.0583 4.44183ZM7.1 12.4252C6.24166 12.4252 5.525 11.6335 5.525 10.6585C5.525 9.6835 6.225 8.89183 7.1 8.89183C7.98333 8.89183 8.68333 9.69183 8.675 10.6585C8.675 11.6335 7.975 12.4252 7.1 12.4252ZM12.9083 12.4252C12.05 12.4252 11.3333 11.6335 11.3333 10.6585C11.3333 9.6835 12.0333 8.89183 12.9083 8.89183C13.7917 8.89183 14.4917 9.69183 14.4833 10.6585C14.4833 11.6335 13.7917 12.4252 12.9083 12.4252Z" fill="white"/>
</svg>
