<svg width="79" height="16" viewBox="0 0 79 16" fill="none" xmlns="http://www.w3.org/2000/svg">
<path d="M0 0.79858H11.7405V2.79728H7.07123V15.2222H4.89374V2.79728H0V0.79858Z" fill="white"/>
<path d="M26.2418 7.94855C26.2418 9.21233 26.0547 10.3387 25.6806 11.3278C25.3064 12.3031 24.7976 13.0792 24.1541 13.6562C23.5255 14.2331 22.8296 14.6727 22.0664 14.9749C21.3031 15.2634 20.5025 15.4076 19.6644 15.4076C17.8087 15.4076 16.2523 14.7208 14.9952 13.3471C13.738 11.9597 13.1095 10.1602 13.1095 7.94855C13.1095 5.64078 13.7231 3.84127 14.9503 2.55001C16.1924 1.24502 17.7787 0.592529 19.7093 0.592529C21.6399 0.592529 23.2113 1.27937 24.4235 2.65304C25.6357 4.01298 26.2418 5.77815 26.2418 7.94855ZM15.3992 7.94855C15.3992 9.48707 15.8033 10.7577 16.6114 11.7605C17.4345 12.7633 18.4522 13.2647 19.6644 13.2647C20.8617 13.2647 21.8793 12.7701 22.7174 11.7811C23.5555 10.7921 23.9745 9.51454 23.9745 7.94855C23.9745 7.09687 23.8248 6.27954 23.5255 5.49654C23.2412 4.69981 22.7623 4.01298 22.0888 3.43603C21.4154 2.85909 20.6222 2.57062 19.7093 2.57062C18.7964 2.57062 18.0032 2.83849 17.3298 3.37422C16.6563 3.90995 16.1625 4.57618 15.8482 5.37291C15.5489 6.16964 15.3992 7.02819 15.3992 7.94855Z" fill="white"/>
<path d="M37.9388 8.03097V15.2222H35.7613V9.43212H30.0594V15.2222H27.8819V0.79858H30.0594V5.99107L35.7613 0.79858H38.8143L31.5859 7.43342H37.9163L37.9388 8.03097Z" fill="white"/>
<path d="M50.0063 0.79858V2.79728H41.9698V6.69164H48.5472V8.69034H41.9698V13.2235H50.0063V15.2222H39.7699V0.79858H50.0063Z" fill="white"/>
<path d="M52.7051 0.79858H57.1498L60.5844 13.2235H61.1232V0.79858H63.3007V15.2222H59.0355L55.4662 2.79728H54.8825V15.2222H52.7051V0.79858Z" fill="white"/>
<path d="M67 14.9258V13.9258H68V12.9258H69V11.9258H70V10.9258H71V9.92578H72V8.92578H73V7.92578H74V6.92578H75V5.92578H76V4.92578H77V10.9258H79V0.925781H69V2.92578H75V3.92578H74V4.92578H73V5.92578H72V6.92578H71V7.92578H70V8.92578H69V9.92578H68V10.9258H67V11.9258H66V12.9258H65V14.9258H67Z" fill="white"/>
</svg>
