<svg width="18" height="18" viewBox="0 0 18 18" fill="none" xmlns="http://www.w3.org/2000/svg">
<path fill-rule="evenodd" clip-rule="evenodd" d="M9.10011 1.58654C9.88057 0.804904 11.1464 0.804424 11.9275 1.58547L13.4308 3.08882C14.2052 3.8632 14.2132 5.11685 13.4488 5.90112L12.453 6.92289L8.10912 2.57903L9.10011 1.58654ZM7.04926 3.6405L11.4059 7.99717L6.35833 13.176C5.79391 13.7551 5.01978 14.0817 4.21143 14.0816L2.4994 14.0816C1.64656 14.0815 0.965488 13.3706 1.00135 12.5179L1.07607 10.7416C1.10767 9.9904 1.41989 9.2784 1.95096 8.74653L7.04926 3.6405ZM14.628 14.7724C15.0421 14.7724 15.3777 14.4365 15.3777 14.0221C15.3777 13.6077 15.0421 13.2718 14.628 13.2718H9.64735C9.23329 13.2718 8.89764 13.6077 8.89764 14.0221C8.89764 14.4365 9.23329 14.7724 9.64735 14.7724H14.628Z" fill="white"/>
</svg>
